<svg width="708" height="240" viewBox="0 0 708 240" fill="none" xmlns="http://www.w3.org/2000/svg">
<path d="M697 120L587.775 240H259.753C207.724 150.88 111.349 90.3605 0.525391 88.0684V0H587.775L697 120Z" fill="white" fill-opacity="0.29"/>
<path d="M697 120L587.775 240H259.753C207.724 150.88 111.349 90.3605 0.525391 88.0684V0H587.775L697 120Z" fill="url(#paint0_linear_46_17)" fill-opacity="0.5"/>
<path d="M587.773 0H599.145L708 120L599.145 240H587.773L697 120L587.773 0Z" fill="white" fill-opacity="0.29"/>
<path d="M587.773 0H599.145L708 120L599.145 240H587.773L697 120L587.773 0Z" fill="url(#paint1_linear_46_17)" fill-opacity="0.5"/>
<defs>
<linearGradient id="paint0_linear_46_17" x1="348.763" y1="0" x2="348.763" y2="240" gradientUnits="userSpaceOnUse">
<stop stop-color="white" stop-opacity="0.6"/>
<stop offset="1" stop-color="#999999" stop-opacity="0.3"/>
</linearGradient>
<linearGradient id="paint1_linear_46_17" x1="647.887" y1="0" x2="647.887" y2="240" gradientUnits="userSpaceOnUse">
<stop stop-color="white" stop-opacity="0.6"/>
<stop offset="1" stop-color="#999999" stop-opacity="0.3"/>
</linearGradient>
</defs>
</svg>
