<svg width="608" height="199" viewBox="0 0 608 199" fill="none" xmlns="http://www.w3.org/2000/svg">
<path d="M600 99.5L521.827 199H186.142C149.021 134.045 79.7449 89.835 0 88.0566V0H521.827L600 99.5Z" fill="white" fill-opacity="0.29"/>
<path d="M600 99.5L521.827 199H186.142C149.021 134.045 79.7449 89.835 0 88.0566V0H521.827L600 99.5Z" fill="url(#paint0_linear_813_53596)" fill-opacity="0.5"/>
<path d="M521.828 0H529.986L607.852 99.5L529.986 199H521.82L600 99.5L521.828 0Z" fill="white" fill-opacity="0.29"/>
<path d="M521.828 0H529.986L607.852 99.5L529.986 199H521.82L600 99.5L521.828 0Z" fill="url(#paint1_linear_813_53596)" fill-opacity="0.5"/>
<defs>
<linearGradient id="paint0_linear_813_53596" x1="300" y1="0" x2="300" y2="199" gradientUnits="userSpaceOnUse">
<stop stop-color="white" stop-opacity="0.6"/>
<stop offset="1" stop-color="#999999" stop-opacity="0.3"/>
</linearGradient>
<linearGradient id="paint1_linear_813_53596" x1="564.836" y1="0" x2="564.836" y2="199" gradientUnits="userSpaceOnUse">
<stop stop-color="white" stop-opacity="0.6"/>
<stop offset="1" stop-color="#999999" stop-opacity="0.3"/>
</linearGradient>
</defs>
</svg>
