<svg width="441" height="280" viewBox="0 0 441 280" fill="none" xmlns="http://www.w3.org/2000/svg">
<path d="M321.013 0H332.113L440.532 140L332.113 280H321.013L429.62 140L321.013 0Z" fill="white" fill-opacity="0.29"/>
<path d="M321.013 0H332.113L440.532 140L332.113 280H321.013L429.62 140L321.013 0Z" fill="url(#paint0_linear_46_27)" fill-opacity="0.5"/>
<path d="M429.62 140L321.013 280H0.396484C22.375 238.099 34.7959 190.487 34.7959 140C34.7959 89.5133 22.375 41.9013 0.396484 0H321.013L429.62 140Z" fill="white" fill-opacity="0.29"/>
<path d="M429.62 140L321.013 280H0.396484C22.375 238.099 34.7959 190.487 34.7959 140C34.7959 89.5133 22.375 41.9013 0.396484 0H321.013L429.62 140Z" fill="url(#paint1_linear_46_27)" fill-opacity="0.5"/>
<defs>
<linearGradient id="paint0_linear_46_27" x1="380.772" y1="0" x2="380.772" y2="280" gradientUnits="userSpaceOnUse">
<stop stop-color="white" stop-opacity="0.6"/>
<stop offset="1" stop-color="#999999" stop-opacity="0.3"/>
</linearGradient>
<linearGradient id="paint1_linear_46_27" x1="215.008" y1="0" x2="215.008" y2="280" gradientUnits="userSpaceOnUse">
<stop stop-color="white" stop-opacity="0.6"/>
<stop offset="1" stop-color="#999999" stop-opacity="0.3"/>
</linearGradient>
</defs>
</svg>
