<svg width="418" height="200" viewBox="0 0 418 200" fill="none" xmlns="http://www.w3.org/2000/svg">
<path d="M410 100L331.827 200H0.496094C16.1543 169.753 25 135.41 25 99C25 63.3905 16.5397 29.7571 1.51953 0H331.827L410 100Z" fill="white" fill-opacity="0.29"/>
<path d="M410 100L331.827 200H0.496094C16.1543 169.753 25 135.41 25 99C25 63.3905 16.5397 29.7571 1.51953 0H331.827L410 100Z" fill="url(#paint0_linear_813_53598)" fill-opacity="0.5"/>
<path d="M331.828 0H339.986L417.852 100L339.986 200H331.82L410 100L331.828 0Z" fill="white" fill-opacity="0.29"/>
<path d="M331.828 0H339.986L417.852 100L339.986 200H331.82L410 100L331.828 0Z" fill="url(#paint1_linear_813_53598)" fill-opacity="0.5"/>
<defs>
<linearGradient id="paint0_linear_813_53598" x1="205.248" y1="0" x2="205.248" y2="200" gradientUnits="userSpaceOnUse">
<stop stop-color="white" stop-opacity="0.6"/>
<stop offset="1" stop-color="#999999" stop-opacity="0.3"/>
</linearGradient>
<linearGradient id="paint1_linear_813_53598" x1="374.836" y1="0" x2="374.836" y2="200" gradientUnits="userSpaceOnUse">
<stop stop-color="white" stop-opacity="0.6"/>
<stop offset="1" stop-color="#999999" stop-opacity="0.3"/>
</linearGradient>
</defs>
</svg>
