<svg width="707" height="240" viewBox="0 0 707 240" fill="none" xmlns="http://www.w3.org/2000/svg">
<path d="M586.934 0H598.145L707 120L598.145 240H586.934L696 120L586.934 0Z" fill="white" fill-opacity="0.29"/>
<path d="M586.934 0H598.145L707 120L598.145 240H586.934L696 120L586.934 0Z" fill="url(#paint0_linear_46_37)" fill-opacity="0.5"/>
<path d="M696 120L586.934 240H0.527344V152.931C111.764 150.628 208.444 89.6661 260.333 0H586.934L696 120Z" fill="white" fill-opacity="0.29"/>
<path d="M696 120L586.934 240H0.527344V152.931C111.764 150.628 208.444 89.6661 260.333 0H586.934L696 120Z" fill="url(#paint1_linear_46_37)" fill-opacity="0.5"/>
<defs>
<linearGradient id="paint0_linear_46_37" x1="646.967" y1="0" x2="646.967" y2="240" gradientUnits="userSpaceOnUse">
<stop stop-color="white" stop-opacity="0.6"/>
<stop offset="1" stop-color="#999999" stop-opacity="0.3"/>
</linearGradient>
<linearGradient id="paint1_linear_46_37" x1="348.264" y1="0" x2="348.264" y2="240" gradientUnits="userSpaceOnUse">
<stop stop-color="white" stop-opacity="0.6"/>
<stop offset="1" stop-color="#999999" stop-opacity="0.3"/>
</linearGradient>
</defs>
</svg>
