<svg width="708" height="240" viewBox="0 0 708 240" fill="none" xmlns="http://www.w3.org/2000/svg">
<path d="M120.28 0H107.948L7.62939e-06 120L107.948 240H120.281L11 120L120.28 0Z" fill="white" fill-opacity="0.29"/>
<path d="M120.28 0H107.948L7.62939e-06 120L107.948 240H120.281L11 120L120.28 0Z" fill="url(#paint0_linear_46_42)" fill-opacity="0.5"/>
<path d="M11 120L120.279 240H707.529V152.931C596.293 150.628 499.613 89.6661 447.724 0H120.279L11 120Z" fill="white" fill-opacity="0.29"/>
<path d="M11 120L120.279 240H707.529V152.931C596.293 150.628 499.613 89.6661 447.724 0H120.279L11 120Z" fill="url(#paint1_linear_46_42)" fill-opacity="0.5"/>
<defs>
<linearGradient id="paint0_linear_46_42" x1="60.1406" y1="0" x2="60.1406" y2="240" gradientUnits="userSpaceOnUse">
<stop stop-color="white" stop-opacity="0.6"/>
<stop offset="1" stop-color="#999999" stop-opacity="0.3"/>
</linearGradient>
<linearGradient id="paint1_linear_46_42" x1="359.265" y1="0" x2="359.265" y2="240" gradientUnits="userSpaceOnUse">
<stop stop-color="white" stop-opacity="0.6"/>
<stop offset="1" stop-color="#999999" stop-opacity="0.3"/>
</linearGradient>
</defs>
</svg>
