<svg width="608" height="199" viewBox="0 0 608 199" fill="none" xmlns="http://www.w3.org/2000/svg">
<path d="M423.29 0C459.939 64.915 528.604 109.356 607.852 111.886V199H86.0244L7.85156 99.5L86.0244 0H423.29Z" fill="white" fill-opacity="0.29"/>
<path d="M423.29 0C459.939 64.915 528.604 109.356 607.852 111.886V199H86.0244L7.85156 99.5L86.0244 0H423.29Z" fill="url(#paint0_linear_813_53600)" fill-opacity="0.5"/>
<path d="M86.0234 0H77.8655L0 99.5L77.8655 199H86.0312L7.85156 99.5L86.0234 0Z" fill="white" fill-opacity="0.29"/>
<path d="M86.0234 0H77.8655L0 99.5L77.8655 199H86.0312L7.85156 99.5L86.0234 0Z" fill="url(#paint1_linear_813_53600)" fill-opacity="0.5"/>
<defs>
<linearGradient id="paint0_linear_813_53600" x1="307.852" y1="0" x2="307.852" y2="199" gradientUnits="userSpaceOnUse">
<stop stop-color="white" stop-opacity="0.6"/>
<stop offset="1" stop-color="#999999" stop-opacity="0.3"/>
</linearGradient>
<linearGradient id="paint1_linear_813_53600" x1="43.0156" y1="0" x2="43.0156" y2="199" gradientUnits="userSpaceOnUse">
<stop stop-color="white" stop-opacity="0.6"/>
<stop offset="1" stop-color="#999999" stop-opacity="0.3"/>
</linearGradient>
</defs>
</svg>
