<svg width="420" height="200" viewBox="0 0 420 200" fill="none" xmlns="http://www.w3.org/2000/svg">
<path d="M418.48 0C403.46 29.7571 395 63.3905 395 99C395 135.41 403.846 169.753 419.504 200H86.0244L7.85156 100L86.0244 0H418.48Z" fill="white" fill-opacity="0.29"/>
<path d="M418.48 0C403.46 29.7571 395 63.3905 395 99C395 135.41 403.846 169.753 419.504 200H86.0244L7.85156 100L86.0244 0H418.48Z" fill="url(#paint0_linear_813_53601)" fill-opacity="0.5"/>
<path d="M86.0234 0H77.8655L0 100L77.8655 200H86.0312L7.85156 100L86.0234 0Z" fill="white" fill-opacity="0.29"/>
<path d="M86.0234 0H77.8655L0 100L77.8655 200H86.0312L7.85156 100L86.0234 0Z" fill="url(#paint1_linear_813_53601)" fill-opacity="0.5"/>
<defs>
<linearGradient id="paint0_linear_813_53601" x1="213.678" y1="0" x2="213.678" y2="200" gradientUnits="userSpaceOnUse">
<stop stop-color="white" stop-opacity="0.6"/>
<stop offset="1" stop-color="#999999" stop-opacity="0.3"/>
</linearGradient>
<linearGradient id="paint1_linear_813_53601" x1="43.0156" y1="0" x2="43.0156" y2="200" gradientUnits="userSpaceOnUse">
<stop stop-color="white" stop-opacity="0.6"/>
<stop offset="1" stop-color="#999999" stop-opacity="0.3"/>
</linearGradient>
</defs>
</svg>
