<svg width="708" height="240" viewBox="0 0 708 240" fill="none" xmlns="http://www.w3.org/2000/svg">
<path d="M11 120L120.281 240H448.244C500.282 150.864 596.682 90.3381 707.531 88.0664V0H120.281L11 120Z" fill="white" fill-opacity="0.29"/>
<path d="M11 120L120.281 240H448.244C500.282 150.864 596.682 90.3381 707.531 88.0664V0H120.281L11 120Z" fill="url(#paint0_linear_46_22)" fill-opacity="0.5"/>
<path d="M120.281 0H108.855L0 120L108.855 240H120.285L11 120L120.281 0Z" fill="white" fill-opacity="0.29"/>
<path d="M120.281 0H108.855L0 120L108.855 240H120.285L11 120L120.281 0Z" fill="url(#paint1_linear_46_22)" fill-opacity="0.5"/>
<defs>
<linearGradient id="paint0_linear_46_22" x1="359.266" y1="0" x2="359.266" y2="240" gradientUnits="userSpaceOnUse">
<stop stop-color="white" stop-opacity="0.6"/>
<stop offset="1" stop-color="#999999" stop-opacity="0.3"/>
</linearGradient>
<linearGradient id="paint1_linear_46_22" x1="60.1426" y1="0" x2="60.1426" y2="240" gradientUnits="userSpaceOnUse">
<stop stop-color="white" stop-opacity="0.6"/>
<stop offset="1" stop-color="#999999" stop-opacity="0.3"/>
</linearGradient>
</defs>
</svg>
