<svg width="600" height="599" viewBox="0 0 600 599" fill="none" xmlns="http://www.w3.org/2000/svg">
<path d="M292.93 143.472C258.56 144.876 227.049 157.364 201.875 177.458L165.079 163.984L178.463 200.537C157.542 225.993 144.501 258.168 143.064 293.337H0C3.412 133.09 132.683 3.81825 292.93 0.40625V143.472Z" fill="#ACEDBB"/>
<path d="M143.087 306.406C144.746 341.579 158.016 373.711 179.149 399.06L167.178 431.755L199.958 419.75C225.437 440.743 257.67 453.831 292.907 455.271V598.336C132.994 594.931 3.92722 466.191 0 306.406H143.087Z" fill="#ACEDBB"/>
<path d="M598.907 306.406C594.988 465.857 466.451 594.394 307 598.313V455.227C342.146 453.568 374.256 440.317 399.596 419.211L433.85 431.755L421.224 397.274C441.504 372.21 454.199 340.758 455.82 306.406H598.907Z" fill="#ACEDBB"/>
<path d="M307.5 0C467.284 3.92721 596.025 132.995 599.43 292.908H456.365C454.941 258.041 442.108 226.117 421.501 200.766L434.35 165.678L399.358 178.49C374.135 157.74 342.305 144.729 307.5 143.087V0Z" fill="#ACEDBB"/>
<path d="M451.28 127.938V120.403H464.408V155H455.972V127.938H451.28Z" fill="#0F1910"/>
<path d="M444.848 470.507C445.923 469.654 446.412 469.259 446.318 469.322C449.414 466.763 451.847 464.662 453.616 463.019C455.417 461.376 456.934 459.654 458.166 457.853C459.398 456.052 460.014 454.298 460.014 452.592C460.014 451.297 459.714 450.286 459.114 449.559C458.514 448.832 457.613 448.469 456.412 448.469C455.212 448.469 454.264 448.927 453.569 449.843C452.905 450.728 452.574 451.992 452.574 453.635H444.754C444.817 450.949 445.385 448.706 446.46 446.905C447.566 445.104 449.003 443.777 450.773 442.924C452.574 442.071 454.564 441.644 456.744 441.644C460.504 441.644 463.332 442.608 465.228 444.535C467.155 446.463 468.119 448.975 468.119 452.071C468.119 455.452 466.965 458.595 464.659 461.502C462.352 464.377 459.414 467.189 455.844 469.938H468.64V476.526H444.848V470.507Z" fill="#0F1910"/>
<path d="M128.417 447.166C128.543 443.785 129.649 441.178 131.735 439.346C133.82 437.513 136.648 436.597 140.218 436.597C142.588 436.597 144.61 437.008 146.285 437.829C147.991 438.651 149.27 439.772 150.123 441.194C151.008 442.616 151.45 444.211 151.45 445.981C151.45 448.066 150.929 449.772 149.886 451.099C148.844 452.395 147.627 453.279 146.237 453.753V453.943C148.038 454.543 149.46 455.539 150.503 456.929C151.545 458.319 152.067 460.104 152.067 462.284C152.067 464.243 151.608 465.981 150.692 467.498C149.807 468.983 148.496 470.152 146.758 471.005C145.052 471.858 143.014 472.284 140.645 472.284C136.853 472.284 133.82 471.352 131.545 469.488C129.302 467.624 128.117 464.812 127.991 461.052H135.858C135.889 462.442 136.284 463.548 137.043 464.37C137.801 465.16 138.907 465.554 140.36 465.554C141.593 465.554 142.54 465.207 143.204 464.512C143.899 463.785 144.247 462.837 144.247 461.668C144.247 460.152 143.757 459.062 142.777 458.398C141.83 457.703 140.297 457.355 138.18 457.355H136.664V450.768H138.18C139.792 450.768 141.087 450.499 142.066 449.962C143.078 449.393 143.583 448.398 143.583 446.976C143.583 445.839 143.267 444.954 142.635 444.322C142.003 443.69 141.134 443.374 140.029 443.374C138.828 443.374 137.927 443.738 137.327 444.464C136.758 445.191 136.427 446.091 136.332 447.166H128.417Z" fill="#0F1910"/>
<path d="M125.322 145.839V139.298L140.299 117.877H149.351V138.825H153.237V145.839H149.351V152H141.247V145.839H125.322ZM141.815 126.787L133.853 138.825H141.815V126.787Z" fill="#0F1910"/>
</svg>
